# xmcd
#
# Track frame offsets:
#	150
#	14290
#	26807
#	41741
#	57574
#	71108
#	86230
#	97424
#	107935
#	120285
#	136766
#	151540
#
# Disc length: 2209 seconds
#
# Revision: 1
# Processed by: cddbd v1.5.1PL2 Copyright (c) Steve Scherf et al.
# Submitted via: EasyCDDAExtractor 8.2.3.1
#
DISCID=a4089f0c
DTITLE=Jacó e Jacózinho - Ontem e Hoje
DYEAR=1974
DGENRE=Sertanejo
TTITLE0=Cavalo preto
TTITLE1=Mourão da porteira
TTITLE2=Vem depressa
TTITLE3=Quatro estados
TTITLE4=O menino da porteira
TTITLE5=Lobisomem
TTITLE6=João de barro
TTITLE7=Buscando a felicidade
TTITLE8=Disco voador
TTITLE9=Boi de carro
TTITLE10=O carro e a gravadora
TTITLE11=Homem sem rumo
EXTD=
EXTT0=
EXTT1=
EXTT2=
EXTT3=
EXTT4=
EXTT5=
EXTT6=
EXTT7=
EXTT8=
EXTT9=
EXTT10=
EXTT11=
PLAYORDER=
